<svg width="32" height="32" viewBox="0 0 32 32" fill="none" xmlns="http://www.w3.org/2000/svg">
<rect width="32" height="32" rx="5" fill="#FAFAF8"/>
<path d="M9.24219 23.5938C9.21094 23.5625 9.19531 23.4922 9.19531 23.3828C9.19531 23.3047 9.21875 23.1875 9.26562 23.0312C9.29688 22.875 9.33594 22.7969 9.38281 22.7969C9.49219 22.7969 9.64062 22.7656 9.82812 22.7031C10.0312 22.6406 10.2266 22.5703 10.4141 22.4922C10.6016 22.3984 10.7188 22.3047 10.7656 22.2109C10.9375 21.8984 11.1328 21.2109 11.3516 20.1484L13.0625 11.2891C13.25 10.3047 13.3281 9.69531 13.2969 9.46094C13.2969 9.36719 13.2109 9.27344 13.0391 9.17969C12.8828 9.07031 12.7109 8.97656 12.5234 8.89844C12.3359 8.82031 12.1953 8.78125 12.1016 8.78125C12.0703 8.78125 12.0547 8.72656 12.0547 8.61719C12.0547 8.30469 12.1094 8.09375 12.2188 7.98438C13.0781 8.01562 13.8438 8.03906 14.5156 8.05469C15.2031 8.05469 15.8828 8.04688 16.5547 8.03125C17.2422 8.01562 17.9922 8 18.8047 7.98438C19.5703 7.96875 20.2422 7.96094 20.8203 7.96094C21.4141 7.94531 21.9219 7.9375 22.3438 7.9375C22.3438 8.09375 22.3359 8.29688 22.3203 8.54688C22.3203 8.79688 22.3125 9.14844 22.2969 9.60156C22.2969 10.0391 22.2969 10.6406 22.2969 11.4062C22.2188 11.4844 22.0469 11.5234 21.7812 11.5234C21.6094 11.5234 21.5156 11.4688 21.5 11.3594C21.3281 10.7656 20.9844 10.2578 20.4688 9.83594C19.9688 9.41406 19.4375 9.20312 18.875 9.20312H18.0547C17.8047 9.20312 17.5156 9.20312 17.1875 9.20312C16.8594 9.20312 16.6562 9.30469 16.5781 9.50781C16.4844 9.75781 16.3984 10.0391 16.3203 10.3516C16.2578 10.6484 16.1875 10.9766 16.1094 11.3359L15.4062 14.9453C15.4062 14.9609 15.5234 14.9922 15.7578 15.0391C15.9922 15.0703 16.1797 15.0859 16.3203 15.0859H18.1719C18.625 15.0859 18.9141 14.9453 19.0391 14.6641C19.1797 14.3828 19.3438 14.0391 19.5312 13.6328C19.5781 13.5234 19.7031 13.4688 19.9062 13.4688C20.1562 13.4688 20.3047 13.5078 20.3516 13.5859L19.5078 18.0156C19.4453 18.0781 19.2812 18.1094 19.0156 18.1094C18.8438 18.1094 18.7422 18.0469 18.7109 17.9219C18.7266 17.4062 18.6797 17.0391 18.5703 16.8203C18.4609 16.6016 18.2578 16.4766 17.9609 16.4453C17.6641 16.3984 17.2422 16.375 16.6953 16.375C15.6484 16.375 15.1094 16.4453 15.0781 16.5859L14.3984 20.1953C14.3359 20.5078 14.2891 20.7812 14.2578 21.0156C14.2266 21.2344 14.2109 21.4219 14.2109 21.5781C14.2109 21.9531 14.3516 22.1562 14.6328 22.1875C14.9297 22.2188 15.2656 22.2344 15.6406 22.2344H16.2031C18.25 22.2344 19.7656 21.3281 20.75 19.5156C20.7969 19.4219 20.9062 19.375 21.0781 19.375C21.4375 19.375 21.6484 19.4219 21.7109 19.5156C21.6016 19.7188 21.4531 20 21.2656 20.3594C21.0938 20.7031 20.8984 21.0781 20.6797 21.4844C20.4766 21.875 20.2891 22.2578 20.1172 22.6328C19.9453 22.9922 19.8203 23.2969 19.7422 23.5469C19.3359 23.5469 18.7969 23.5391 18.125 23.5234C17.4531 23.5234 16.6562 23.5156 15.7344 23.5C15.2188 23.4844 14.6406 23.4766 14 23.4766C13.3594 23.4609 12.7266 23.4531 12.1016 23.4531C11.4766 23.4531 10.8984 23.4766 10.3672 23.5234C9.78906 23.5703 9.41406 23.5938 9.24219 23.5938Z" fill="black"/>
</svg>
